<svg width="10" height="10" viewBox="0 0 10 10" fill="none" xmlns="http://www.w3.org/2000/svg">
<path d="M9.6 0.9H7.5V0.1C7.5 0.045 7.455 0 7.4 0H6.7C6.645 0 6.6 0.045 6.6 0.1V0.9H3.4V0.1C3.4 0.045 3.355 0 3.3 0H2.6C2.545 0 2.5 0.045 2.5 0.1V0.9H0.4C0.17875 0.9 0 1.07875 0 1.3V9.6C0 9.82125 0.17875 10 0.4 10H9.6C9.82125 10 10 9.82125 10 9.6V1.3C10 1.07875 9.82125 0.9 9.6 0.9ZM9.1 9.1H0.9V4.35H9.1V9.1ZM0.9 3.5V1.8H2.5V2.4C2.5 2.455 2.545 2.5 2.6 2.5H3.3C3.355 2.5 3.4 2.455 3.4 2.4V1.8H6.6V2.4C6.6 2.455 6.645 2.5 6.7 2.5H7.4C7.455 2.5 7.5 2.455 7.5 2.4V1.8H9.1V3.5H0.9Z" fill="#0A66B5"/>
</svg>
