<svg width="10" height="13" viewBox="0 0 10 13" fill="none" xmlns="http://www.w3.org/2000/svg">
<path d="M4.90988 7.14288C4.4684 7.14288 4.03684 7.01196 3.66977 6.76669C3.30269 6.52142 3.01659 6.17281 2.84765 5.76494C2.6787 5.35707 2.6345 4.90826 2.72063 4.47526C2.80675 4.04227 3.01934 3.64454 3.33152 3.33237C3.64369 3.0202 4.04142 2.80761 4.47441 2.72148C4.9074 2.63535 5.35621 2.67956 5.76408 2.8485C6.17195 3.01745 6.52057 3.30355 6.76584 3.67062C7.01111 4.03769 7.14202 4.46926 7.14202 4.91073C7.14131 5.50252 6.90591 6.06986 6.48746 6.48831C6.069 6.90677 5.50166 7.14217 4.90988 7.14288ZM4.90988 3.57145C4.64499 3.57145 4.38606 3.65 4.16581 3.79716C3.94557 3.94432 3.77391 4.15349 3.67254 4.39821C3.57117 4.64293 3.54465 4.91222 3.59633 5.17201C3.648 5.43181 3.77556 5.67045 3.96286 5.85775C4.15016 6.04505 4.3888 6.17261 4.6486 6.22428C4.90839 6.27596 5.17768 6.24944 5.4224 6.14807C5.66712 6.0467 5.87629 5.87504 6.02345 5.6548C6.17062 5.43456 6.24916 5.17562 6.24916 4.91073C6.24881 4.55564 6.10759 4.21519 5.8565 3.96411C5.60542 3.71302 5.26497 3.5718 4.90988 3.57145Z" fill="#0A66B5"/>
<path d="M4.91072 12.5L1.14465 8.05848C1.09232 7.99179 1.04053 7.92468 0.989291 7.85714C0.345979 7.00972 -0.0015541 5.97465 5.2245e-06 4.91071C5.2245e-06 3.60831 0.517383 2.35925 1.43832 1.43832C2.35926 0.517377 3.60832 0 4.91072 0C6.21312 0 7.46218 0.517377 8.38312 1.43832C9.30406 2.35925 9.82143 3.60831 9.82143 4.91071C9.82299 5.97417 9.47562 7.00877 8.83259 7.8558L8.83215 7.85714C8.83215 7.85714 8.69822 8.03304 8.67813 8.0567L4.91072 12.5ZM1.70179 7.3192C1.70268 7.3192 1.80626 7.4567 1.82992 7.48616L4.91072 11.1196L7.99554 7.48125C8.01518 7.4567 8.11965 7.3183 8.12009 7.31786C8.64561 6.6255 8.92961 5.77992 8.92858 4.91071C8.92858 3.84511 8.50527 2.82315 7.75177 2.06966C6.99828 1.31617 5.97632 0.892857 4.91072 0.892857C3.84512 0.892857 2.82316 1.31617 2.06967 2.06966C1.31617 2.82315 0.892862 3.84511 0.892862 4.91071C0.891926 5.78046 1.17624 6.62652 1.70224 7.3192H1.70179Z" fill="#0A66B5"/>
</svg>
